# xmcd
#
# Track frame offsets:
#	150
#	16283
#	29200
#	44320
#	58010
#	73021
#	88837
#	114262
#	133629
#	156932
#	173241
#	190861
#	207429
#	230222
#	270985
#
# Disc length: 3689 seconds
#
# Revision: 0
# Processed by: cddbd v1.5.1PL0 Copyright (c) Steve Scherf et al.
# Submitted via: dBpowerAMP V4.0
#
DISCID=d90e670f
DTITLE=Dolly Parton - Halos and Horns
DYEAR=2002
DGENRE=Country
TTITLE0=Halos And Horns
TTITLE1=Sugar Hill
TTITLE2=Not For Me
TTITLE3=Hello God
TTITLE4=If
TTITLE5=Shattered Image
TTITLE6=These Old Bones
TTITLE7=What A Heartache
TTITLE8=I´m Gone
TTITLE9=Raven Dove
TTITLE10=Dagger Through The Heart
TTITLE11=If Only
TTITLE12=John Daniel
TTITLE13=Stairway To Heaven
TTITLE14=DATA
EXTD=
EXTT0=
EXTT1=
EXTT2=
EXTT3=
EXTT4=
EXTT5=
EXTT6=
EXTT7=
EXTT8=
EXTT9=
EXTT10=
EXTT11=
EXTT12=
EXTT13=
EXTT14=
PLAYORDER=
